<?xml version="1.0" encoding="UTF-8" standalone="no"?>
<!DOCTYPE svg PUBLIC "-//W3C//DTD SVG 1.1//EN" "http://www.w3.org/Graphics/SVG/1.1/DTD/svg11.dtd">
<svg width="100%" height="100%" viewBox="0 0 168 77" version="1.1" xmlns="http://www.w3.org/2000/svg" xmlns:xlink="http://www.w3.org/1999/xlink" xml:space="preserve" xmlns:serif="http://www.serif.com/" style="fill-rule:evenodd;clip-rule:evenodd;stroke-linejoin:round;stroke-miterlimit:2;">
    <g>
        <path d="M25.157,32.741L31.02,32.913L31.279,14.03L39.729,27.567L47.661,14.979L48.178,32.654L50.765,32.827L54.904,22.739L55.335,0.321L47.144,0.321L39.901,12.22L32.917,0.752L24.467,0.666L25.157,32.741Z" style="fill:white;"/>
        <path d="M110.292,0.898L110.723,32.8L116.112,32.692L116.22,22.992L117.944,22.884L136.913,47.027L137.129,34.74L121.717,16.525L134.434,0.79L124.842,0.682L116.651,10.382L116.543,1.005L110.292,0.898Z" style="fill:white;"/>
        <path d="M0.957,36.04L7.854,36.04L7.965,53.919L8.848,54.03L16.408,41.172L23.14,53.809L24.906,54.03L25.127,35.875L30.81,35.93L30.921,67.825L23.03,67.825L16.463,55.961L8.958,67.881L0.957,67.881L0.957,36.04Z" style="fill:white;"/>
        <path d="M34.011,35.985L40.854,36.04L40.964,67.881L33.956,67.881L34.011,35.985Z" style="fill:white;"/>
        <path d="M44.091,35.985L67.047,35.985L67.157,42.883L59.156,43.048L58.99,67.936L52.148,67.881L52.092,43.159L44.146,42.938L44.091,35.985Z" style="fill:white;"/>
        <path d="M70.137,35.102L77.035,39.13L77.035,47.794L86.03,48.015L86.085,44.042L91.051,46.856L87.078,36.316L92.928,36.095L93.148,67.825L86.195,67.936L86.03,54.968L77.09,55.078L76.98,67.881L70.358,67.825L70.137,35.102Z" style="fill:white;"/>
        <path d="M140.203,36.095L147.045,36.095L147.045,48.843L157.254,35.985L166.194,35.93L151.736,53.864L167.076,72.792L157.254,72.847L147.211,60.652L146.935,67.825L140.147,67.881L140.203,36.095Z" style="fill:white;"/>
        <path d="M136.119,72.847L136.174,71.026L152.012,71.081L153.005,72.847L136.119,72.847Z" style="fill:white;"/>
        <path d="M0.963,71.039L1.069,72.946L123.014,72.946L120.966,71.11L0.963,71.039Z" style="fill:white;"/>
        <path d="M102.209,67.494L114.128,35.985L119.15,36.095L134.049,75.165L111.865,62.252L109.824,67.881L102.209,67.494ZM116.638,49.353L114.224,55.561L120.708,59.148L116.638,49.353Z" style="fill:white;"/>
        <path d="M86.289,32.741L88.876,32.827L89.307,18.514L108.707,42.053L112.587,32.913L99.998,20.238C99.998,20.238 115.001,11.567 100.774,1.048C92.497,0.875 82.236,0.961 82.236,0.961L82.323,22.948L86.289,32.741ZM89.166,7.907L89.166,13.839L96.478,14.184C96.478,14.184 103.376,11.563 97.306,7.7C93.581,7.838 89.166,7.907 89.166,7.907Z" style="fill:white;"/>
        <path d="M54.214,32.223L65.94,1.183L71.114,1.355L85.944,40.414L63.354,27.826L61.457,32.741L54.214,32.223ZM68.542,14.253L65.851,20.806L72.266,24.117L68.542,14.253Z" style="fill:white;"/>
    </g>
</svg>
